#!OML:ASF X:\für Bonn\!DataBase\2005_08_10_Bjorn_Final\c3d\bjorn.ASF
:FULLY-SPECIFIED
:DEGREES
130
root 0.528529 16.0966 2.77886 -176.784 0.0795802 179.883
lowerback 10.3607 -0.0369776 3.2846
upperback 8.02441 1.26567 1.27767
thorax 2.58286 1.19176 -0.595382
lowerneck -27.7409 -0.015451 1.16889
upperneck 9.45246 -0.0796572 -4.17205
head 7.30027 -0.564922 -1.62198
rclavicle 7.15625e-015 1.51076e-014
rhumerus 83.658 4.03008 -73.8535
rradius 7.39339
rwrist 46.0373
rhand -8.00166 7.15789
rfingers 7.12502
rthumb 17.9072 -22.0377
lclavicle 7.15625e-015 1.51076e-014
lhumerus 85.6696 -5.17659 81.8168
lradius 6.13632
lwrist -58.4859
lhand -14.3993 -3.91281
lfingers 7.12502
lthumb 11.7441 25.738
rfemur -43.093 -14.9295 15.9856
rtibia 83.5296
rfoot -24.4806 29.6756
rtoes -5.6046
lfemur -42.9605 9.43875 -18.4446
ltibia 85.8401
lfoot -27.328 -6.15436
ltoes -19.4614
131
root 0.537657 16.3105 2.73438 -176.456 0.0803872 179.899
lowerback 9.59222 0.0842111 3.2287
upperback 7.80305 1.31722 1.29877
thorax 2.76928 1.1828 -0.534844
lowerneck -27.3919 -0.140672 1.01245
upperneck 9.82601 -0.160389 -4.03502
head 7.37134 -0.57842 -1.56019
rclavicle 2.54444e-014 1.27222e-014
rhumerus 83.1811 4.07728 -73.8303
rradius 7.70516
rwrist 45.7214
rhand -7.90923 7.02391
rfingers 7.12502
rthumb 17.9962 -22.1635
lclavicle 2.54444e-014 1.27222e-014
lhumerus 85.5606 -5.2471 81.7615
lradius 6.05539
lwrist -58.0042
lhand -14.7362 -3.8625
lfingers 7.12502
lthumb 11.4192 25.8065
rfemur -41.8489 -14.8498 16.17
rtibia 80.9406
rfoot -23.8932 29.5424
rtoes -4.50264
lfemur -41.6756 9.21329 -18.4362
ltibia 83.1676
lfoot -27.1266 -5.91966
ltoes -19.2131
132
root 0.546419 16.5211 2.6906 -176.235 0.0878797 179.931
lowerback 8.8933 0.201819 3.1985
upperback 7.65973 1.38858 1.3151
thorax 3.00312 1.19489 -0.493252
lowerneck -27.1079 -0.277528 0.855703
upperneck 10.1773 -0.269555 -3.87266
head 7.44378 -0.605926 -1.4943
rclavicle 1.23246e-014 -8.74653e-015
rhumerus 82.786 4.06033 -73.7971
rradius 7.99389
rwrist 45.3367
rhand -7.84788 6.90358
rfingers 7.12502
rthumb 18.0552 -22.2784
lclavicle 1.23246e-014 -8.74653e-015
lhumerus 85.5345 -5.32069 81.6977
lradius 5.96451
lwrist -57.4535
lhand -15.1217 -3.81265
lfingers 7.12502
lthumb 11.0474 25.8766
rfemur -40.4719 -14.7903 16.3515
rtibia 78.3129
rfoot -23.4127 29.3139
rtoes -3.72141
lfemur -40.246 9.03009 -18.3945
ltibia 80.4472
lfoot -26.9607 -5.67168
ltoes -18.8428
133
root 0.554652 16.7272 2.64636 -176.07 0.11842 179.93
lowerback 8.24846 0.315183 3.1213
upperback 7.52885 1.45996 1.33406
thorax 3.22049 1.20703 -0.422505
lowerneck -26.8236 -0.402987 0.633058
upperneck 10.532 -0.351711 -3.66665
head 7.51825 -0.620091 -1.3996
rclavicle -1.27222e-014 -1.35174e-014
rhumerus 82.3771 4.06069 -73.747
rradius 8.32407
rwrist 44.8511
rhand -7.78616 6.8073
rfingers 7.12502
rthumb 18.1146 -22.3692
lclavicle -1.27222e-014 -1.35174e-014
lhumerus 85.4591 -5.39007 81.6547
lradius 5.90049
lwrist -56.7557
lhand -15.2897 -3.82473
lfingers 7.12502
lthumb 10.8853 25.8731
rfemur -39.0341 -14.7751 16.4742
rtibia 75.659
rfoot -22.8428 29.1187
rtoes -2.88313
lfemur -38.7424 8.86733 -18.3822
ltibia 77.6925
lfoot -26.7502 -5.56776
ltoes -17.8857
134
root 0.563717 16.9277 2.60306 -175.876 0.152937 179.965
lowerback 7.57765 0.433531 3.09025
upperback 7.40028 1.54127 1.33603
thorax 3.45791 1.22702 -0.393601
lowerneck -26.5503 -0.540413 0.425887
upperneck 10.8809 -0.470679 -3.39283
head 7.59165 -0.644611 -1.28945
rclavicle -1.63003e-014 8.74653e-015
rhumerus 81.996 4.03554 -73.7362
rradius 8.61809
rwrist 44.2384
rhand -7.79833 6.70852
rfingers 7.12502
rthumb 18.1029 -22.469
lclavicle -1.63003e-014 8.74653e-015
lhumerus 85.3193 -5.48209 81.5731
lradius 5.95843
lwrist -55.9219
lhand -15.0462 -3.96542
lfingers 7.12502
lthumb 11.1201 25.7199
rfemur -37.6224 -14.7585 16.6526
rtibia 72.9824
rfoot -22.2941 28.8912
rtoes -2.10131
lfemur -37.278 8.73291 -18.3344
ltibia 74.9262
lfoot -26.4482 -5.52031
ltoes -16.7069
135
root 0.572319 17.1214 2.56031 -175.692 0.173631 179.962
lowerback 6.90153 0.552154 3.04627
upperback 7.29686 1.62777 1.31808
thorax 3.72653 1.25206 -0.375915
lowerneck -26.2731 -0.661843 0.322162
upperneck 11.1531 -0.58661 -3.29184
head 7.63879 -0.684342 -1.2534
rclavicle 1.51076e-014 3.97569e-015
rhumerus 81.6688 3.94874 -73.7152
rradius 8.89018
rwrist 43.5166
rhand -7.81036 6.62946
rfingers 7.12502
rthumb 18.0913 -22.5492
lclavicle 1.51076e-014 3.97569e-015
lhumerus 85.1231 -5.63824 81.499
lradius 6.10923
lwrist -55.4037
lhand -14.9943 -3.95469
lfingers 7.12502
lthumb 11.1703 25.728
rfemur -36.2151 -14.8 16.7956
rtibia 70.3092
rfoot -21.7564 28.6231
rtoes -1.46628
lfemur -35.8106 8.59225 -18.3318
ltibia 72.1425
lfoot -26.0533 -5.4887
ltoes -15.332
136
root 0.58004 17.3075 2.51781 -175.516 0.211691 179.977
lowerback 6.25647 0.657637 3.00719
upperback 7.17653 1.69889 1.31112
thorax 3.96071 1.26857 -0.349113
lowerneck -26.0493 -0.756129 0.25813
upperneck 11.5329 -0.66631 -3.25219
head 7.73124 -0.712688 -1.24099
rclavicle 5.96354e-016 1.03368e-014
rhumerus 81.334 3.94889 -73.7092
rradius 9.16078
rwrist 42.6057
rhand -7.86884 6.54534
rfingers 7.12502
rthumb 18.035 -22.6385
lclavicle 5.96354e-016 1.03368e-014
lhumerus 84.8388 -5.759 81.4265
lradius 6.26561
lwrist -55.3147
lhand -15.0713 -3.92165
lfingers 7.12502
lthumb 11.096 25.765
rfemur -34.8248 -14.8757 16.9562
rtibia 67.6629
rfoot -21.2787 28.2963
rtoes -1.15346
lfemur -34.3372 8.47359 -18.318
ltibia 69.3555
lfoot -25.6733 -5.42121
ltoes -14.164
137
root 0.587804 17.4885 2.47527 -175.387 0.237707 179.994
lowerback 5.6676 0.763279 2.98811
upperback 7.06217 1.77814 1.2881
thorax 4.17228 1.29191 -0.35045
lowerneck -25.7851 -0.862344 0.175725
upperneck 11.8538 -0.771474 -3.15259
head 7.79697 -0.747834 -1.20796
rclavicle 3.18055e-015 -4.77083e-015
rhumerus 81.0056 3.89704 -73.7131
rradius 9.38659
rwrist 41.6349
rhand -7.95396 6.49316
rfingers 7.12502
rthumb 17.9531 -22.6982
lclavicle 3.18055e-015 -4.77083e-015
lhumerus 84.5592 -5.93042 81.3418
lradius 6.41294
lwrist -55.3684
lhand -15.1396 -3.83862
lfingers 7.12502
lthumb 11.0301 25.8516
rfemur -33.4053 -14.9653 17.1163
rtibia 65.054
rfoot -21.0102 27.8228
rtoes -1.5445
lfemur -32.8118 8.34435 -18.2947
ltibia 66.5588
lfoot -25.2685 -5.36518
ltoes -12.8272
138
root 0.59461 17.6615 2.43335 -175.266 0.267015 179.995
lowerback 5.1069 0.860116 2.97591
upperback 6.93009 1.84692 1.23594
thorax 4.3513 1.30989 -0.385894
lowerneck -25.4329 -0.941637 0.141936
upperneck 12.1232 -0.860084 -3.0598
head 7.83137 -0.773123 -1.18136
rclavicle 5.96354e-015 3.4191e-014
rhumerus 80.6618 3.86143 -73.7638
rradius 9.56029
rwrist 40.8309
rhand -8.22945 6.47371
rfingers 7.12502
rthumb 17.688 -22.7418
lclavicle 5.96354e-015 3.4191e-014
lhumerus 84.2163 -6.1066 81.2179
lradius 6.60437
lwrist -55.5166
lhand -15.2065 -3.797
lfingers 7.12502
lthumb 10.9655 25.8966
rfemur -32.0213 -15.0657 17.2507
rtibia 62.5046
rfoot -20.7723 27.2874
rtoes -2.19307
lfemur -31.2944 8.23044 -18.2988
ltibia 63.774
lfoot -24.8442 -5.2401
ltoes -11.6784
139
root 0.601088 17.8258 2.39186 -175.213 0.286645 179.993
lowerback 4.62387 0.942253 2.93591
upperback 6.82745 1.90671 1.20884
thorax 4.5164 1.32523 -0.380412
lowerneck -25.1277 -1.01891 0.0797289
upperneck 12.3884 -0.937431 -2.98529
head 7.87191 -0.798431 -1.15549
rclavicle 2.20651e-014 -2.06736e-014
rhumerus 80.3979 3.86191 -73.7821
rradius 9.58206
rwrist 40.3262
rhand -8.42588 6.46603
rfingers 7.12502
rthumb 17.499 -22.7664
lclavicle 2.20651e-014 -2.06736e-014
lhumerus 83.916 -6.24717 81.1239
lradius 6.77644
lwrist -55.7343
lhand -15.2452 -3.72187
lfingers 7.12502
lthumb 10.9283 25.9737
rfemur -30.5851 -15.1942 17.3659
rtibia 60.0085
rfoot -20.5815 26.7351
rtoes -3.08486
lfemur -29.7234 8.08673 -18.2962
ltibia 61.0149
lfoot -24.3993 -5.11489
ltoes -10.4806
140
root 0.606961 17.9808 2.35094 -175.18 0.313815 180.014
lowerback 4.14643 1.02044 2.94167
upperback 6.76 1.9685 1.17147
thorax 4.71817 1.34727 -0.409266
lowerneck -24.7976 -1.09688 0.046644
upperneck 12.5191 -1.02895 -2.94281
head 7.86221 -0.833573 -1.14561
rclavicle -7.95139e-015 1.27222e-014
rhumerus 80.1554 3.84934 -73.8209
rradius 9.5731
rwrist 40.2056
rhand -8.36005 6.41304
rfingers 7.12502
rthumb 17.5624 -22.8137
lclavicle -7.95139e-015 1.27222e-014
lhumerus 83.6958 -6.36642 80.9996
lradius 6.90715
lwrist -56.0115
lhand -15.3225 -3.69696
lfingers 7.12502
lthumb 10.8537 26.0026
rfemur -29.1724 -15.3144 17.4862
rtibia 57.5878
rfoot -20.2304 26.2626
rtoes -3.40103
lfemur -28.1673 7.96476 -18.2751
ltibia 58.3042
lfoot -23.9535 -4.93335
ltoes -9.58799
